<?xml version="1.0" encoding="utf-8"?>
<!-- Generator: Adobe Illustrator 14.0.0, SVG Export Plug-In  -->
<!DOCTYPE svg PUBLIC "-//W3C//DTD SVG 1.1//EN" "http://www.w3.org/Graphics/SVG/1.1/DTD/svg11.dtd" [
	<!ENTITY ns_flows "http://ns.adobe.com/Flows/1.0/">
]>
<svg version="1.1"
	 xmlns="http://www.w3.org/2000/svg" xmlns:xlink="http://www.w3.org/1999/xlink" xmlns:a="http://ns.adobe.com/AdobeSVGViewerExtensions/3.0/"
	 x="0px" y="0px" width="67px" height="59px" viewBox="-4.683 -0.682 67 59" enable-background="new -4.683 -0.682 67 59"
	 xml:space="preserve">
<defs>
</defs>
<path fill="none" stroke="#FFFFFF" stroke-miterlimit="10" d="M0.5,30.605v-3.591c0.039-0.197,0.101-0.393,0.116-0.592
	c0.229-2.86,0.838-5.638,1.979-8.27C6.609,8.898,13.538,3.158,23.424,1.04c1.137-0.243,2.302-0.363,3.453-0.54h3.868
	c1.288,0.198,2.589,0.34,3.864,0.602c15.235,3.13,25.146,18.302,21.914,33.522C53.28,49.898,38.292,59.855,23.06,56.476
	C11.457,53.904,4.188,46.528,1.209,35.008C0.839,33.575,0.73,32.073,0.5,30.605z M3.3,27.398h9.802
	c0.026-0.133,0.062-0.242,0.069-0.353c0.166-3.067,0.686-6.072,1.646-8.991c0.155-0.467-0.132-0.533-0.425-0.686
	c-1.974-1.026-3.941-2.067-5.911-3.103c-0.153-0.082-0.307-0.163-0.491-0.262C5.155,18.032,3.605,22.454,3.3,27.398z M49.67,14.138
	c-2.246,1.125-4.464,2.224-6.66,3.359c-0.13,0.069-0.188,0.45-0.144,0.657c0.419,2.022,0.904,4.03,1.295,6.058
	c0.2,1.047,0.246,2.124,0.36,3.173h9.764C54.242,23.07,51.908,16.478,49.67,14.138z M14.822,39.907
	c-1.009-3.107-1.534-6.361-1.698-9.679H3.3c0.31,4.941,1.854,9.388,4.649,13.312C10.279,42.308,12.508,41.129,14.822,39.907z
	 M44.486,30.231c-0.145,3.37-0.705,6.616-1.685,9.681c2.32,1.225,4.566,2.412,6.831,3.607c2.289-2.408,4.66-9.129,4.647-13.288
	H44.486z M41.704,30.238H30.227v6.891c3.349,0.583,6.635,1.153,9.995,1.74C41.073,36.174,41.633,33.287,41.704,30.238z
	 M27.394,30.247H15.915c0.082,3.056,0.624,5.958,1.489,8.617c3.394-0.588,6.662-1.155,9.989-1.733V30.247z M40.104,18.774
	c-3.314,0.574-6.577,1.139-9.861,1.707v6.906h11.394C41.793,25.483,40.81,20.166,40.104,18.774z M15.928,27.382h11.447v-6.894
	c-3.332-0.582-6.576-1.146-9.896-1.722C16.608,21.455,16.016,24.353,15.928,27.382z M27.385,54.051V40.121
	c-3.083,0.109-6.036,0.643-8.969,1.583C20.472,46.517,23.395,50.597,27.385,54.051z M30.246,40.125v13.918
	c3.986-3.465,6.924-7.544,8.955-12.353C36.234,40.771,33.3,40.219,30.246,40.125z M27.406,3.822
	c-3.942,3.418-6.839,7.41-8.884,12.13c2.921,0.908,5.846,1.453,8.884,1.534V3.822z M39.1,15.952
	c-2.065-4.732-4.952-8.738-8.858-12.094v13.639C33.269,17.387,36.167,16.864,39.1,15.952z M34.535,3.99
	c3.008,3.295,5.441,6.933,7.22,11.165c2.103-1.116,4.114-2.182,6.188-3.283C44.19,7.769,39.796,5.146,34.535,3.99z M9.675,11.878
	c2.094,1.104,4.123,2.175,6.207,3.271c1.769-4.282,4.238-7.881,7.207-11.168C17.812,5.157,13.411,7.773,9.675,11.878z M15.78,42.505
	c-2.058,1.092-4.048,2.146-6.104,3.238c3.683,4.029,7.988,6.634,13.3,7.939C19.884,50.319,17.493,46.72,15.78,42.505z
	 M41.839,42.501c-1.719,4.235-4.113,7.824-7.195,11.186c5.316-1.321,9.628-3.914,13.297-7.944
	C45.883,44.65,43.904,43.597,41.839,42.501z"/>
</svg>
