<?xml version="1.0" encoding="utf-8"?>
<!-- Generator: Adobe Illustrator 14.0.0, SVG Export Plug-In  -->
<!DOCTYPE svg PUBLIC "-//W3C//DTD SVG 1.1//EN" "http://www.w3.org/Graphics/SVG/1.1/DTD/svg11.dtd" [
	<!ENTITY ns_flows "http://ns.adobe.com/Flows/1.0/">
]>
<svg version="1.1"
	 xmlns="http://www.w3.org/2000/svg" xmlns:xlink="http://www.w3.org/1999/xlink" xmlns:a="http://ns.adobe.com/AdobeSVGViewerExtensions/3.0/"
	 x="0px" y="0px" width="67px" height="59px" viewBox="0.5 0.5 67 59" enable-background="new 0.5 0.5 67 59" xml:space="preserve">
<defs>
</defs>
<path fill="none" stroke="#FFFFFF" stroke-miterlimit="10" d="M63.271,8.664H29.75v39.674c0,3.459-2.728,6.582-6.187,6.582h-12.54
	c-3.456,0-6.442-3.123-6.442-6.582V8.632c-2.041,0-4.081,1.869-4.081,4.179v41.796C0.5,56.918,2.446,59,4.754,59h58.517
	c2.31,0,3.893-2.082,3.893-4.393V12.811C67.163,10.501,65.58,8.664,63.271,8.664z M40.282,51.473c-1.729,0-3.135-1.402-3.135-3.135
	c0-1.73,1.406-3.133,3.135-3.133c1.729,0,3.135,1.402,3.135,3.133C43.417,50.07,42.012,51.473,40.282,51.473z M40.282,43.113
	c-1.729,0-3.135-1.406-3.135-3.135c0-1.73,1.406-3.135,3.135-3.135c1.729,0,3.135,1.404,3.135,3.135
	C43.417,41.707,42.012,43.113,40.282,43.113z M40.282,34.756c-1.729,0-3.135-1.404-3.135-3.137c0-1.731,1.406-3.134,3.135-3.134
	c1.729,0,3.135,1.403,3.135,3.134C43.417,33.352,42.012,34.756,40.282,34.756z M48.642,51.473c-1.729,0-3.135-1.402-3.135-3.135
	c0-1.73,1.405-3.133,3.135-3.133c1.731,0,3.135,1.402,3.135,3.133C51.776,50.07,50.373,51.473,48.642,51.473z M48.642,43.113
	c-1.729,0-3.135-1.406-3.135-3.135c0-1.73,1.405-3.135,3.135-3.135c1.731,0,3.135,1.404,3.135,3.135
	C51.776,41.707,50.373,43.113,48.642,43.113z M48.642,34.756c-1.729,0-3.135-1.404-3.135-3.137c0-1.731,1.405-3.134,3.135-3.134
	c1.731,0,3.135,1.403,3.135,3.134C51.776,33.352,50.373,34.756,48.642,34.756z M57.001,51.473c-1.73,0-3.137-1.402-3.137-3.135
	c0-1.73,1.406-3.133,3.137-3.133s3.135,1.402,3.135,3.133C60.136,50.07,58.731,51.473,57.001,51.473z M57.001,43.113
	c-1.73,0-3.137-1.406-3.137-3.135c0-1.73,1.406-3.135,3.137-3.135s3.135,1.404,3.135,3.135
	C60.136,41.707,58.731,43.113,57.001,43.113z M57.001,34.756c-1.73,0-3.137-1.404-3.137-3.137c0-1.731,1.406-3.134,3.137-3.134
	s3.135,1.403,3.135,3.134C60.136,33.352,58.731,34.756,57.001,34.756z M60.36,23.26c0,1.155-1.159,2.41-2.313,2.41H39.235
	c-1.152,0-2.004-1.255-2.004-2.41v-4.18c0-1.154,0.852-2.253,2.004-2.253h18.812c1.154,0,2.313,1.1,2.313,2.253V23.26z
	 M25.669,2.361v45.977c0,1.158-0.95,1.82-2.106,1.82h-12.54c-1.154,0-2.36-0.662-2.36-1.82V2.361c0-1.155,1.206-1.861,2.36-1.861
	h2.092h4.179h6.269C24.719,0.5,25.669,1.206,25.669,2.361z"/>
</svg>
