<?xml version="1.0" encoding="utf-8"?>
<!-- Generator: Adobe Illustrator 14.0.0, SVG Export Plug-In  -->
<!DOCTYPE svg PUBLIC "-//W3C//DTD SVG 1.1//EN" "http://www.w3.org/Graphics/SVG/1.1/DTD/svg11.dtd" [
	<!ENTITY ns_flows "http://ns.adobe.com/Flows/1.0/">
]>
<svg version="1.1"
	 xmlns="http://www.w3.org/2000/svg" xmlns:xlink="http://www.w3.org/1999/xlink" xmlns:a="http://ns.adobe.com/AdobeSVGViewerExtensions/3.0/"
	 x="0px" y="0px" width="67px" height="59px" viewBox="-4.089 -0.084 67 59" enable-background="new -4.089 -0.084 67 59"
	 xml:space="preserve">
<defs>
</defs>
<path fill="none" stroke="#FFFFFF" stroke-miterlimit="10" d="M52.061,0.5H6.769C3.322,0.5,0.5,3.324,0.5,6.772V52.06
	c0,3.451,2.822,6.271,6.269,6.271h45.286c3.451,0,6.268-2.824,6.268-6.271V6.772C58.331,3.324,55.506,0.5,52.061,0.5z M50.431,5.682
	c1.63,0,2.959,1.325,2.959,2.96c0,1.637-1.321,2.962-2.959,2.962c-1.641,0-2.96-1.325-2.96-2.962
	C47.471,7.006,48.796,5.682,50.431,5.682z M41.193,5.678c1.633,0,2.963,1.327,2.963,2.963c0,1.64-1.326,2.964-2.963,2.964
	c-1.636,0-2.961-1.324-2.961-2.964C38.232,7.005,39.561,5.678,41.193,5.678z M53.587,52.953H5.25V15.85h48.337V52.953z"/>
<rect x="15.445" y="37.496" fill="none" stroke="#FFFFFF" stroke-miterlimit="10" width="9.245" height="9.244"/>
<rect x="34.517" y="37.496" fill="none" stroke="#FFFFFF" stroke-miterlimit="10" width="9.247" height="9.244"/>
<rect x="15.445" y="22.47" fill="none" stroke="#FFFFFF" stroke-miterlimit="10" width="9.245" height="9.238"/>
<rect x="34.517" y="22.47" fill="none" stroke="#FFFFFF" stroke-miterlimit="10" width="9.247" height="9.238"/>
</svg>
