<?xml version="1.0" encoding="utf-8"?>
<!-- Generator: Adobe Illustrator 14.0.0, SVG Export Plug-In  -->
<!DOCTYPE svg PUBLIC "-//W3C//DTD SVG 1.1//EN" "http://www.w3.org/Graphics/SVG/1.1/DTD/svg11.dtd" [
	<!ENTITY ns_flows "http://ns.adobe.com/Flows/1.0/">
]>
<svg version="1.1"
	 xmlns="http://www.w3.org/2000/svg" xmlns:xlink="http://www.w3.org/1999/xlink" xmlns:a="http://ns.adobe.com/AdobeSVGViewerExtensions/3.0/"
	 x="0px" y="0px" width="67px" height="59px" viewBox="-13.54 -0.261 67 59" enable-background="new -13.54 -0.261 67 59"
	 xml:space="preserve">
<defs>
</defs>
<path fill="none" stroke="#FFFFFF" stroke-miterlimit="10" d="M39.42,19.959C39.42,9.23,30.69,0.5,19.961,0.5
	C9.23,0.5,0.5,9.23,0.5,19.959c0,5.724,3.36,10.184,6.608,14.5c2.804,3.727,5.46,7.26,5.828,11.35
	c-0.604,0.207-1.041,0.775-1.041,1.449c0,0.854,0.689,1.541,1.539,1.541l13.052-0.004c0.85,0,1.539-0.688,1.539-1.539
	c0-0.672-0.438-1.24-1.04-1.447c0.369-4.092,3.025-7.623,5.827-11.35C36.062,30.143,39.42,25.683,39.42,19.959z M23.9,45.719
	l-7.881,0.002c-0.384-5.047-3.466-9.143-6.453-13.111c-3.08-4.092-5.989-7.955-5.989-12.65c0-9.034,7.351-16.382,16.384-16.382
	c9.034,0,16.381,7.348,16.381,16.382c0,4.695-2.908,8.558-5.987,12.65C27.366,36.579,24.286,40.674,23.9,45.719z"/>
<path fill="none" stroke="#FFFFFF" stroke-miterlimit="10" d="M23.148,55.053h-6.375c-0.852,0-1.54,0.613-1.54,1.463
	s0.688,1.461,1.54,1.461h6.375c0.85,0,1.539-0.611,1.539-1.461S23.997,55.053,23.148,55.053z"/>
<path fill="none" stroke="#FFFFFF" stroke-miterlimit="10" d="M25.646,50.389L25.646,50.389l-11.373,0.002
	c-0.85,0-1.538,0.689-1.538,1.539s0.689,1.537,1.538,1.537l11.373-0.002c0.849,0,1.538-0.688,1.538-1.539
	C27.185,51.079,26.495,50.389,25.646,50.389z"/>
<path fill="none" stroke="#FFFFFF" stroke-miterlimit="10" d="M25.012,19.093l-5.051,5.052l-5.053-5.052c-0.6-0.6-1.574-0.6-2.175,0
	c-0.602,0.601-0.417,1.575,0.184,2.175l5.873,5.688v10.46c0,0.852,0.32,1.537,1.171,1.537c0.85,0,1.169-0.686,1.169-1.537v-10.46
	l5.873-5.688c0.601-0.6,0.693-1.574,0.092-2.175C26.494,18.492,25.612,18.492,25.012,19.093z"/>
</svg>
